<svg version="1.1" viewBox="0.0 0.0 540.0944881889764 540.0" fill="none" stroke="none" stroke-linecap="square" stroke-miterlimit="10" xmlns:xlink="http://www.w3.org/1999/xlink" xmlns="http://www.w3.org/2000/svg"><clipPath id="g224c0f67b2c_0_64.0"><path d="m0 0l540.0945 0l0 540.0l-540.0945 0l0 -540.0z" clip-rule="nonzero"/></clipPath><g clip-path="url(#g224c0f67b2c_0_64.0)"><path fill="#000000" fill-opacity="0.0" d="m0 0l540.0945 0l0 540.0l-540.0945 0z" fill-rule="evenodd"/><path fill="#000000" fill-opacity="0.0" d="m283.5622 25.859816l0 0c112.76318 7.76293 204.84235 95.13134 220.82788 209.5304l-236.90378 34.609787z" fill-rule="evenodd"/><path fill="#000000" fill-opacity="0.0" d="m283.5622 25.859816l0 0c112.76318 7.76293 204.84235 95.13134 220.82788 209.5304" fill-rule="evenodd"/><path stroke="#ffffff" stroke-width="8.0" stroke-linejoin="round" stroke-linecap="butt" d="m283.5622 25.859816l0 0c112.76318 7.76293 204.84235 95.13134 220.82788 209.5304" fill-rule="evenodd"/><path fill="#000000" fill-opacity="0.0" d="m537.1245 269.91992l0 0c-18.138733 -1.3440247 -32.575836 -19.105286 -33.57544 -41.306152l35.739075 -2.4090424z" fill-rule="evenodd"/><path fill="#000000" fill-opacity="0.0" d="m537.1245 269.91992l0 0c-18.138733 -1.3440247 -32.575836 -19.105286 -33.57544 -41.306152" fill-rule="evenodd"/><path stroke="#ffffff" stroke-width="8.0" stroke-linejoin="round" stroke-linecap="butt" d="m537.1245 269.91992l0 0c-18.138733 -1.3440247 -32.575836 -19.105286 -33.57544 -41.306152" fill-rule="evenodd"/><path fill="#000000" fill-opacity="0.0" d="m283.5622 514.18744l0 0c112.76318 -7.7629395 204.84235 -95.13135 220.82788 -209.5304l-236.90378 -34.609802z" fill-rule="evenodd"/><path fill="#000000" fill-opacity="0.0" d="m283.5622 514.18744l0 0c112.76318 -7.7629395 204.84235 -95.13135 220.82788 -209.5304" fill-rule="evenodd"/><path stroke="#ffffff" stroke-width="8.0" stroke-linejoin="round" stroke-linecap="butt" d="m283.5622 514.18744l0 0c112.76318 -7.7629395 204.84235 -95.13135 220.82788 -209.5304" fill-rule="evenodd"/><path fill="#000000" fill-opacity="0.0" d="m537.1245 270.12732l0 0c-18.138733 1.3440552 -32.575836 19.105286 -33.57544 41.306152l35.739075 2.4090576z" fill-rule="evenodd"/><path fill="#000000" fill-opacity="0.0" d="m537.1245 270.12732l0 0c-18.138733 1.3440552 -32.575836 19.105286 -33.57544 41.306152" fill-rule="evenodd"/><path stroke="#ffffff" stroke-width="8.0" stroke-linejoin="round" stroke-linecap="butt" d="m537.1245 270.12732l0 0c-18.138733 1.3440552 -32.575836 19.105286 -33.57544 41.306152" fill-rule="evenodd"/><path fill="#000000" fill-opacity="0.0" d="m256.65472 25.836193l0 0c-112.76318 7.762932 -204.84235 95.13135 -220.82788 209.5304l236.90378 34.609787z" fill-rule="evenodd"/><path fill="#000000" fill-opacity="0.0" d="m256.65472 25.836193l0 0c-112.76318 7.762932 -204.84235 95.13135 -220.82788 209.5304" fill-rule="evenodd"/><path stroke="#ffffff" stroke-width="8.0" stroke-linejoin="round" stroke-linecap="butt" d="m256.65472 25.836193l0 0c-112.76318 7.762932 -204.84235 95.13135 -220.82788 209.5304" fill-rule="evenodd"/><path fill="#000000" fill-opacity="0.0" d="m3.0923963 269.8963l0 0c18.138746 -1.3440247 32.57586 -19.105286 33.575443 -41.306152l-35.739067 -2.4090424z" fill-rule="evenodd"/><path fill="#000000" fill-opacity="0.0" d="m3.0923963 269.8963l0 0c18.138746 -1.3440247 32.57586 -19.105286 33.575443 -41.306152" fill-rule="evenodd"/><path stroke="#ffffff" stroke-width="8.0" stroke-linejoin="round" stroke-linecap="butt" d="m3.0923963 269.8963l0 0c18.138746 -1.3440247 32.57586 -19.105286 33.575443 -41.306152" fill-rule="evenodd"/><path fill="#000000" fill-opacity="0.0" d="m256.65472 514.1638l0 0c-112.76318 -7.7629395 -204.84235 -95.13135 -220.82788 -209.5304l236.90378 -34.609802z" fill-rule="evenodd"/><path fill="#000000" fill-opacity="0.0" d="m256.65472 514.1638l0 0c-112.76318 -7.7629395 -204.84235 -95.13135 -220.82788 -209.5304" fill-rule="evenodd"/><path stroke="#ffffff" stroke-width="8.0" stroke-linejoin="round" stroke-linecap="butt" d="m256.65472 514.1638l0 0c-112.76318 -7.7629395 -204.84235 -95.13135 -220.82788 -209.5304" fill-rule="evenodd"/><path fill="#000000" fill-opacity="0.0" d="m3.0923963 270.1037l0 0c18.138746 1.3440247 32.57586 19.105286 33.575443 41.306152l-35.739067 2.4090576z" fill-rule="evenodd"/><path fill="#000000" fill-opacity="0.0" d="m3.0923963 270.1037l0 0c18.138746 1.3440247 32.57586 19.105286 33.575443 41.306152" fill-rule="evenodd"/><path stroke="#ffffff" stroke-width="8.0" stroke-linejoin="round" stroke-linecap="butt" d="m3.0923963 270.1037l0 0c18.138746 1.3440247 32.57586 19.105286 33.575443 41.306152" fill-rule="evenodd"/><path fill="#ffffff" d="m135.69072 164.62425c10.386902 0 17.847916 4.169464 22.383041 12.508377c4.5351257 8.338913 6.8026886 20.993591 6.8026886 37.964005c0 7.9000244 -0.5486145 14.91008 -1.645813 21.030167c-1.0972137 6.095688 -2.816162 11.2282715 -5.1568756 15.397736c-2.3407135 4.169449 -5.3641357 7.339203 -9.070251 9.509277c-3.6817474 2.145691 -8.119339 3.2185364 -13.31279 3.2185364c-10.313751 0 -17.762573 -4.169464 -22.346466 -12.508377c-4.5595093 -8.338913 -6.8392563 -20.993576 -6.8392563 -37.964005c0 -7.9000244 0.54859924 -14.897888 1.6458054 -20.993576c1.0972137 -6.1200867 2.8283615 -11.264862 5.193451 -15.434311c2.389473 -4.169464 5.412895 -7.3270264 9.070251 -9.472717c3.657364 -2.1700745 8.082764 -3.2551117 13.276215 -3.2551117zm0.87776184 -24.358398c-8.119339 0 -15.751022 1.4629669 -22.895065 4.3889008c-7.1196594 2.9259338 -13.337166 7.4245605 -18.652527 13.49588c-5.2909775 6.0713043 -9.460373 13.825043 -12.508171 23.261185c-3.0234146 9.436127 -4.5351257 20.664413 -4.5351257 33.684814c0 23.919525 4.75457 42.157852 14.263702 54.71498c9.509132 12.532776 23.699684 18.799133 42.571663 18.799133c8.119339 0 15.738831 -1.4629517 22.85849 -4.3888855c7.144043 -2.9259338 13.361557 -7.4245605 18.652527 -13.49588c5.3153687 -6.0713196 9.484756 -13.825043 12.508179 -23.261185c3.0477905 -9.436142 4.571686 -20.664413 4.571686 -33.68483c0 -23.99266 -4.7545624 -42.243195 -14.263687 -54.751556c-9.50914 -12.508377 -23.699692 -18.762558 -42.57167 -18.762558z" fill-rule="evenodd"/><path fill="#ffffff" d="m218.13966 142.73698l0 143.4074l24.577454 0l0 -44.547363l0 -59.469635l7.899887 18.433395l38.402283 85.5836l32.91623 0l0 -143.4074l-24.577454 0l0 39.609848l0 63.30992l-6.9124146 -16.787567l-39.17032 -86.1322z" fill-rule="evenodd"/><path fill="#ffffff" d="m361.21643 142.73698l0 143.4074l86.35025 0l0 -22.822296l-58.920044 0l0 -39.8293l56.177032 0l0 -22.273682l-56.177032 0l0 -35.659836l58.920044 0l0 -22.82228z" fill-rule="evenodd"/><path fill="#ffffff" d="m158.78052 335.79193c-4.1943817 0 -7.7738037 0.48358154 -10.738251 1.4507141c-2.9644623 0.9566345 -5.3927917 2.2496338 -7.2849884 3.8790588c-1.8921967 1.618927 -3.2798157 3.516388 -4.162842 5.6924744c-0.8830414 2.176056 -1.3245544 4.4782715 -1.3245544 6.906616c0 2.6491394 0.43099976 4.914551 1.2930145 6.7962646c0.8725128 1.8712158 2.018341 3.4848633 3.4375 4.8409424c1.4191589 1.3561096 3.0327759 2.491455 4.8408813 3.4060364c1.8186188 0.9145813 3.6635284 1.7345276 5.5346985 2.4599c1.8816986 0.7253418 3.726593 1.4033813 5.5346985 2.0341492c1.8186188 0.6307373 3.4375 1.340332 4.856659 2.1287537c1.4191589 0.78842163 2.5597382 1.6977539 3.4217377 2.7279663c0.8725128 1.0196838 1.3087769 2.286438 1.3087769 3.800232c0 1.1037903 -0.22076416 2.112976 -0.6622772 3.0275574c-0.44151306 0.9145813 -1.1510925 1.7030029 -2.1287231 2.3652954c-0.9776459 0.66226196 -2.2391052 1.1826172 -3.7844086 1.5610657c-1.5453033 0.3784485 -3.4217377 0.567688 -5.629303 0.567688c-1.4822388 0 -3.0117645 -0.09460449 -4.588608 -0.283844c-1.576828 -0.18920898 -3.1641846 -0.44677734 -4.762039 -0.77264404c-1.5873566 -0.33642578 -3.1694489 -0.7253723 -4.746277 -1.1669006c-1.5768433 -0.4414978 -3.0906067 -0.9145508 -4.5412903 -1.4191589l0 11.4953c2.964447 0.8830261 5.960434 1.5137634 8.987961 1.8922119c3.0275269 0.3784485 6.165436 0.567688 9.413727 0.567688c3.658249 0 7.0326843 -0.39422607 10.123291 -1.1826477c3.0905914 -0.78842163 5.7554474 -1.992096 7.9945526 -3.611023c2.2391052 -1.6293945 3.9788818 -3.6898193 5.21933 -6.1812744c1.2509613 -2.4914246 1.8764343 -5.4243774 1.8764343 -8.798859c0 -2.5229797 -0.43624878 -4.7042847 -1.3087769 -6.543976c-0.8619995 -1.8501587 -2.013092 -3.453308 -3.4532623 -4.8094177c-1.4296722 -1.3560791 -3.0538177 -2.5072021 -4.8724213 -3.453308c-1.8081207 -0.94610596 -3.6687775 -1.7871094 -5.582016 -2.5229797c-1.90271 -0.7463684 -3.763382 -1.4401855 -5.5820007 -2.0814514c-1.8081055 -0.6517639 -3.4322357 -1.345581 -4.8724213 -2.0814514c-1.429657 -0.7463684 -2.5807495 -1.5820923 -3.4532776 -2.5072021c-0.8619995 -0.9356079 -1.2929993 -2.0499268 -1.2929993 -3.342926c0 -1.040741 0.20498657 -1.9868469 0.6149597 -2.8383484c0.4099884 -0.85150146 1.0722504 -1.5663452 1.9868164 -2.1445312c0.91456604 -0.5886841 2.0814362 -1.04599 3.5005798 -1.3718567c1.4191589 -0.33639526 3.1536713 -0.50460815 5.2035675 -0.50460815c1.1668549 0 2.3967896 0.063079834 3.6897888 0.1892395c1.2930145 0.12612915 2.5755005 0.3100891 3.8474884 0.5518799c1.282486 0.23129272 2.522934 0.50460815 3.7213287 0.8199768c1.1983948 0.31536865 2.302185 0.66226196 3.3113556 1.0407104l0 -10.643768c-1.0091705 -0.25231934 -2.1234741 -0.4940796 -3.3428955 -0.7253723c-1.2089081 -0.24179077 -2.4703674 -0.44677734 -3.7844086 -0.6149597c-1.3035126 -0.17871094 -2.6280518 -0.3206482 -3.9736176 -0.42575073c-1.3350525 -0.1156311 -2.6175537 -0.17346191 -3.8474884 -0.17346191z" fill-rule="evenodd"/><path fill="#ffffff" d="m219.92787 335.98615c-4.383606 0 -8.336212 0.73587036 -11.857819 2.207611c-3.5110931 1.4612122 -6.496567 3.5899963 -8.956436 6.386261c-2.4598541 2.785797 -4.352066 6.2075806 -5.676605 10.26535c-1.3245392 4.0472717 -1.9868164 8.6727295 -1.9868164 13.876373c0 5.077484 0.60446167 9.534729 1.8133698 13.371735c1.2194214 3.8265076 3.001236 7.0328064 5.3454742 9.618835c2.3547363 2.5860596 5.240341 4.5361023 8.65683 5.8501587c3.4269867 1.3035278 7.3638306 1.9552917 11.810501 1.9552917c2.775238 0 5.445343 -0.2680664 8.01033 -0.8041992c2.5755005 -0.5361328 5.2351074 -1.3560791 7.9787903 -2.4599l0 -10.88031c-1.0407104 0.47305298 -2.1707764 0.94085693 -3.3901978 1.4034119c-1.2089081 0.45202637 -2.4388275 0.8462219 -3.6897888 1.1826172c-1.240448 0.32589722 -2.4703827 0.5939636 -3.689804 0.8041992c-1.2089081 0.19973755 -2.3337097 0.29962158 -3.3744202 0.29962158c-2.9013824 0 -5.408554 -0.47833252 -7.521515 -1.4349365c-2.1129608 -0.9671631 -3.8474884 -2.3652954 -5.2035675 -4.194458c-1.3560791 -1.8291626 -2.3600006 -4.05777 -3.0117493 -6.6858826c-0.6412506 -2.6386108 -0.9618683 -5.629364 -0.9618683 -8.972321c0 -3.153717 0.3153534 -6.0446167 0.9460907 -8.672699c0.6307373 -2.6386108 1.6136322 -4.9093018 2.9486847 -6.812042c1.3455658 -1.9132385 3.0590668 -3.3955078 5.1404877 -4.446747c2.081421 -1.0617371 4.5885925 -1.5926208 7.521515 -1.5926208c1.9868164 0 4.1943817 0.2680664 6.622711 0.8041992c2.4283295 0.5361328 4.9828033 1.4349365 7.6634216 2.6964417l0 -11.542603c-1.3245392 -0.44152832 -2.6017761 -0.8041992 -3.8317108 -1.0880432c-1.2299347 -0.283844 -2.4440918 -0.5098572 -3.6424866 -0.67803955c-1.1983948 -0.17871094 -2.4230804 -0.29962158 -3.6740265 -0.3626709c-1.240448 -0.063079834 -2.5702515 -0.09463501 -3.9893951 -0.09463501z" fill-rule="evenodd"/><path fill="#ffffff" d="m270.03085 346.2938c4.4782104 0 7.6949463 1.7976379 9.650238 5.392853c1.9552612 3.5952454 2.9328918 9.051178 2.9328918 16.367798c0 3.4060059 -0.23651123 6.428314 -0.7095642 9.066925c-0.47305298 2.6281128 -1.2141724 4.840973 -2.2233276 6.6385803c-1.0091858 1.7976074 -2.3127136 3.164215 -3.910553 4.099823c-1.5873718 0.92510986 -3.5005798 1.3876343 -5.739685 1.3876343c-4.446686 0 -7.6581726 -1.7976074 -9.634491 -5.392853c-1.9657898 -3.5952148 -2.9486694 -9.051147 -2.9486694 -16.367767c0 -3.4060364 0.23651123 -6.423065 0.7095642 -9.051178c0.47305298 -2.6386108 1.2194214 -4.85672 2.2391052 -6.6543274c1.0302124 -1.7976379 2.3337097 -3.1589966 3.910553 -4.084076c1.5768433 -0.9356079 3.4848328 -1.4034119 5.723938 -1.4034119zm0.37841797 -10.501862c-3.5005798 0 -6.7908936 0.6307373 -9.870972 1.8922424c-3.06958 1.2614746 -5.7502136 3.2010193 -8.041885 5.8186035c-2.2811584 2.6175842 -4.0787506 5.9605103 -5.3927765 10.028809c-1.3035126 4.0682983 -1.9552765 8.909241 -1.9552765 14.522858c0 10.312653 2.049881 18.175903 6.149658 23.589783c4.099777 5.4033813 10.217911 8.105072 18.354385 8.105072c3.5005798 0 6.7856445 -0.6307373 9.855225 -1.8922424c3.0800781 -1.2614746 5.7607117 -3.2010193 8.04187 -5.8186035c2.2916565 -2.6175842 4.089264 -5.9605103 5.3927917 -10.028809c1.3140259 -4.0682983 1.9710388 -8.909241 1.9710388 -14.522858c0 -10.344208 -2.0498962 -18.212708 -6.149658 -23.60556c-4.0997925 -5.3928833 -10.217926 -8.089294 -18.3544 -8.089294z" fill-rule="evenodd"/><path fill="#ffffff" d="m323.4539 346.5079c2.20755 0 4.1155396 0.25231934 5.7239075 0.756897c1.6083679 0.50460815 2.9381714 1.22995 3.98938 2.1760864c1.0617371 0.94610596 1.8501587 2.0919495 2.365265 3.4375305c0.52560425 1.335083 0.78842163 2.8225708 0.78842163 4.4625244c0 1.7976074 -0.27856445 3.4217834 -0.8357239 4.872467c-0.54663086 1.4507141 -1.3508301 2.6964417 -2.4125671 3.737152c-1.0512085 1.040741 -2.3494873 1.8396912 -3.8947754 2.3968506c-1.5452881 0.54663086 -3.327118 0.8199463 -5.3454895 0.8199463l-6.480774 0l0 -22.659454zm-17.834045 -9.65036l0 61.828613l11.731689 0l0 -19.868408l5.9131165 0c4.162842 0 7.821106 -0.5519104 10.9747925 -1.6557007c3.1536865 -1.1038208 5.7869873 -2.6491394 7.8999634 -4.6359863c2.1129456 -1.9868164 3.7055664 -4.341614 4.7778015 -7.0643005c1.0722351 -2.7332458 1.6083679 -5.708252 1.6083679 -8.925018c0 -3.153717 -0.54663086 -5.950012 -1.6398926 -8.3888855c-1.0827637 -2.4494019 -2.6753845 -4.5098267 -4.777832 -6.181305c-2.091919 -1.6714478 -4.677948 -2.938202 -7.758026 -3.8002014c-3.06958 -0.8725281 -6.606964 -1.3088074 -10.612122 -1.3088074z" fill-rule="evenodd"/><path fill="#ffffff" d="m365.03287 336.85754l0 61.828613l37.229126 0l0 -9.8396l-25.402832 0l0 -17.171997l24.220184 0l0 -9.603058l-24.220184 0l0 -15.374359l25.402832 0l0 -9.8396z" fill-rule="evenodd"/></g></svg>