<?xml version="1.0" standalone="no"?>
<!DOCTYPE svg PUBLIC "-//W3C//DTD SVG 20010904//EN"
 "http://www.w3.org/TR/2001/REC-SVG-20010904/DTD/svg10.dtd">
<svg version="1.0" xmlns="http://www.w3.org/2000/svg"
 viewBox="0 0 540.000000 540.000000"
 preserveAspectRatio="xMidYMid meet">

<g transform="translate(0.000000,540.000000) scale(0.100000,-0.100000)"
fill="#073763ff" stroke="none">
<rect x="0" y="0" width="100000" height="100000" stroke="none" fill="#ffffff"/>
<path d="M0 2695 l0 -2695 2700 0 2700 0 0 1329 0 1328 -45 -8 c-136 -25 -255
-161 -271 -309 -23 -223 -117 -525 -240 -773 -325 -658 -944 -1144 -1657
-1302 -133 -29 -338 -55 -350 -45 -5 4 -7 23 -5 41 l3 34 105 12 c837 98 1561
645 1895 1433 72 168 125 361 169 610 21 119 70 213 147 284 33 31 65 56 71
56 6 0 -7 13 -28 28 -101 74 -165 183 -190 324 -44 246 -97 440 -169 608 -334
788 -1058 1335 -1895 1433 l-105 12 -3 34 c-2 18 0 37 5 41 12 10 217 -16 350
-45 934 -206 1669 -956 1867 -1904 14 -64 27 -141 30 -171 16 -148 135 -284
271 -309 l45 -8 0 1328 0 1329 -2700 0 -2700 0 0 -2695z m2601 2454 c18 -35
-18 -55 -112 -63 -187 -15 -436 -78 -644 -163 -758 -308 -1325 -1033 -1440
-1840 -8 -56 -26 -130 -40 -164 -31 -77 -94 -161 -145 -195 -22 -15 -40 -28
-40 -29 0 -1 18 -14 40 -29 51 -34 114 -118 145 -195 14 -34 32 -108 40 -164
115 -807 682 -1532 1440 -1840 208 -85 457 -148 644 -163 94 -8 130 -28 112
-63 -15 -27 -34 -29 -158 -14 -797 90 -1525 607 -1887 1340 -122 246 -216 548
-240 770 -10 89 -54 179 -117 240 -38 35 -112 72 -146 73 -20 0 -23 5 -23 45
0 40 3 45 23 45 34 1 108 38 146 73 63 61 107 151 117 240 24 222 118 524 240
770 362 733 1090 1250 1887 1340 124 15 143 13 158 -14z m-919 -1173 c154 -33
268 -123 336 -268 50 -105 69 -181 84 -335 27 -294 -41 -550 -185 -700 -116
-121 -250 -170 -437 -160 -334 17 -503 231 -527 662 -19 354 92 623 308 748
103 60 280 82 421 53z m1094 -436 c107 -234 209 -460 227 -504 l32 -79 3 507
2 506 125 0 125 0 -2 -717 -3 -718 -164 0 -164 0 -95 210 c-51 116 -154 345
-228 510 l-134 300 -2 -510 -3 -510 -122 -3 -123 -3 0 721 0 720 166 -2 166
-3 194 -425z m1674 315 l0 -115 -295 0 -295 0 0 -180 0 -180 280 0 280 0 0
-110 0 -110 -280 0 -280 0 0 -200 0 -200 295 0 296 0 -3 -112 -3 -113 -430 0
-430 0 -3 718 -2 717 435 0 435 0 0 -115z m-2646 -1831 c12 -5 16 -19 16 -58
l0 -53 -67 14 c-80 17 -146 10 -174 -18 -44 -44 -14 -80 111 -129 99 -40 156
-86 170 -140 25 -94 -36 -196 -134 -225 -58 -18 -174 -19 -246 -4 l-50 11 0
60 c0 48 3 59 14 55 80 -31 214 -40 254 -18 13 7 27 24 33 38 14 38 -12 70
-79 100 -32 13 -79 34 -105 46 -86 38 -129 116 -107 196 18 67 66 111 145 132
32 9 191 4 219 -7z m563 0 c21 -6 23 -12 23 -65 0 -32 -1 -59 -2 -59 -2 0 -21
7 -43 15 -59 21 -143 19 -182 -5 -53 -32 -77 -91 -77 -190 -1 -66 4 -94 19
-125 40 -80 120 -104 231 -70 27 8 50 15 52 15 1 0 2 -25 2 -55 l0 -54 -42
-13 c-57 -16 -184 -16 -231 1 -50 17 -103 64 -128 112 -31 62 -44 171 -30 255
30 173 142 262 315 249 38 -3 80 -8 93 -11z m481 -21 c35 -21 54 -43 77 -87
26 -53 30 -71 33 -166 5 -125 -11 -193 -58 -259 -74 -102 -250 -123 -345 -40
-116 102 -123 395 -11 517 69 77 211 93 304 35z m480 12 c98 -29 142 -87 142
-185 0 -138 -94 -220 -254 -220 l-56 0 0 -100 0 -100 -60 0 -60 0 0 310 0 310
118 0 c77 0 136 -5 170 -15z m642 -35 l0 -50 -125 0 -125 0 0 -75 0 -75 120 0
120 0 0 -50 0 -50 -120 0 -120 0 0 -85 0 -85 125 0 125 0 0 -50 0 -50 -185 0
-185 0 0 310 0 310 185 0 185 0 0 -50z"/>
<path d="M1473 3740 c-58 -12 -95 -33 -133 -76 -66 -75 -90 -165 -97 -364 -13
-369 77 -542 282 -544 190 -1 278 128 292 429 13 290 -51 489 -174 538 -52 20
-120 27 -170 17z"/>
<path d="M2652 1914 c-45 -32 -57 -70 -57 -194 0 -160 30 -210 123 -210 87 0
131 93 118 248 -7 84 -25 133 -57 156 -30 20 -98 21 -127 0z"/>
<path d="M3160 1821 l0 -111 60 0 c51 0 64 4 91 28 24 21 32 39 36 73 5 41 2
50 -25 80 -27 30 -36 33 -96 37 l-66 4 0 -111z"/>
</g>
</svg>
