<svg version="1.1" viewBox="0.0 0.0 540.0944881889764 540.0" fill="none" stroke="none" stroke-linecap="square" stroke-miterlimit="10" xmlns:xlink="http://www.w3.org/1999/xlink" xmlns="http://www.w3.org/2000/svg"><clipPath id="g22aa5a1bec9_0_272.0"><path d="m0 0l540.0945 0l0 540.0l-540.0945 0l0 -540.0z" clip-rule="nonzero"/></clipPath><g clip-path="url(#g22aa5a1bec9_0_272.0)"><path fill="#000000" fill-opacity="0.0" d="m0 0l540.0945 0l0 540.0l-540.0945 0z" fill-rule="evenodd"/><path fill="#073763" d="m0 270.04724l0 0c0 -149.14297 120.90427 -270.04724 270.04724 -270.04724l0 0c71.62097 0 140.30856 28.451324 190.95224 79.09501c50.643677 50.643684 79.095 119.33126 79.095 190.95224l0 0c0 149.14297 -120.90427 270.04724 -270.04724 270.04724l0 0c-149.14297 0 -270.04724 -120.90427 -270.04724 -270.04724z" fill-rule="evenodd"/><path fill="#000000" fill-opacity="0.0" d="m283.5622 25.859816l0 0c112.76318 7.76293 204.84235 95.13134 220.82788 209.5304l-236.90378 34.609787z" fill-rule="evenodd"/><path fill="#000000" fill-opacity="0.0" d="m283.5622 25.859816l0 0c112.76318 7.76293 204.84235 95.13134 220.82788 209.5304" fill-rule="evenodd"/><path stroke="#ffffff" stroke-width="8.0" stroke-linejoin="round" stroke-linecap="butt" d="m283.5622 25.859816l0 0c112.76318 7.76293 204.84235 95.13134 220.82788 209.5304" fill-rule="evenodd"/><path fill="#000000" fill-opacity="0.0" d="m537.1245 269.91992l0 0c-18.138733 -1.3440247 -32.575836 -19.105286 -33.57544 -41.306152l35.739075 -2.4090424z" fill-rule="evenodd"/><path fill="#000000" fill-opacity="0.0" d="m537.1245 269.91992l0 0c-18.138733 -1.3440247 -32.575836 -19.105286 -33.57544 -41.306152" fill-rule="evenodd"/><path stroke="#ffffff" stroke-width="8.0" stroke-linejoin="round" stroke-linecap="butt" d="m537.1245 269.91992l0 0c-18.138733 -1.3440247 -32.575836 -19.105286 -33.57544 -41.306152" fill-rule="evenodd"/><path fill="#000000" fill-opacity="0.0" d="m283.5622 514.18744l0 0c112.76318 -7.7629395 204.84235 -95.13135 220.82788 -209.5304l-236.90378 -34.609802z" fill-rule="evenodd"/><path fill="#000000" fill-opacity="0.0" d="m283.5622 514.18744l0 0c112.76318 -7.7629395 204.84235 -95.13135 220.82788 -209.5304" fill-rule="evenodd"/><path stroke="#ffffff" stroke-width="8.0" stroke-linejoin="round" stroke-linecap="butt" d="m283.5622 514.18744l0 0c112.76318 -7.7629395 204.84235 -95.13135 220.82788 -209.5304" fill-rule="evenodd"/><path fill="#000000" fill-opacity="0.0" d="m537.1245 270.12732l0 0c-18.138733 1.3440552 -32.575836 19.105286 -33.57544 41.306152l35.739075 2.4090576z" fill-rule="evenodd"/><path fill="#000000" fill-opacity="0.0" d="m537.1245 270.12732l0 0c-18.138733 1.3440552 -32.575836 19.105286 -33.57544 41.306152" fill-rule="evenodd"/><path stroke="#ffffff" stroke-width="8.0" stroke-linejoin="round" stroke-linecap="butt" d="m537.1245 270.12732l0 0c-18.138733 1.3440552 -32.575836 19.105286 -33.57544 41.306152" fill-rule="evenodd"/><path fill="#000000" fill-opacity="0.0" d="m256.65472 25.836193l0 0c-112.76318 7.762932 -204.84235 95.13135 -220.82788 209.5304l236.90378 34.609787z" fill-rule="evenodd"/><path fill="#000000" fill-opacity="0.0" d="m256.65472 25.836193l0 0c-112.76318 7.762932 -204.84235 95.13135 -220.82788 209.5304" fill-rule="evenodd"/><path stroke="#ffffff" stroke-width="8.0" stroke-linejoin="round" stroke-linecap="butt" d="m256.65472 25.836193l0 0c-112.76318 7.762932 -204.84235 95.13135 -220.82788 209.5304" fill-rule="evenodd"/><path fill="#000000" fill-opacity="0.0" d="m3.0923963 269.8963l0 0c18.138746 -1.3440247 32.57586 -19.105286 33.575443 -41.306152l-35.739067 -2.4090424z" fill-rule="evenodd"/><path fill="#000000" fill-opacity="0.0" d="m3.0923963 269.8963l0 0c18.138746 -1.3440247 32.57586 -19.105286 33.575443 -41.306152" fill-rule="evenodd"/><path stroke="#ffffff" stroke-width="8.0" stroke-linejoin="round" stroke-linecap="butt" d="m3.0923963 269.8963l0 0c18.138746 -1.3440247 32.57586 -19.105286 33.575443 -41.306152" fill-rule="evenodd"/><path fill="#000000" fill-opacity="0.0" d="m256.65472 514.1638l0 0c-112.76318 -7.7629395 -204.84235 -95.13135 -220.82788 -209.5304l236.90378 -34.609802z" fill-rule="evenodd"/><path fill="#000000" fill-opacity="0.0" d="m256.65472 514.1638l0 0c-112.76318 -7.7629395 -204.84235 -95.13135 -220.82788 -209.5304" fill-rule="evenodd"/><path stroke="#ffffff" stroke-width="8.0" stroke-linejoin="round" stroke-linecap="butt" d="m256.65472 514.1638l0 0c-112.76318 -7.7629395 -204.84235 -95.13135 -220.82788 -209.5304" fill-rule="evenodd"/><path fill="#000000" fill-opacity="0.0" d="m3.0923963 270.1037l0 0c18.138746 1.3440247 32.57586 19.105286 33.575443 41.306152l-35.739067 2.4090576z" fill-rule="evenodd"/><path fill="#000000" fill-opacity="0.0" d="m3.0923963 270.1037l0 0c18.138746 1.3440247 32.57586 19.105286 33.575443 41.306152" fill-rule="evenodd"/><path stroke="#ffffff" stroke-width="8.0" stroke-linejoin="round" stroke-linecap="butt" d="m3.0923963 270.1037l0 0c18.138746 1.3440247 32.57586 19.105286 33.575443 41.306152" fill-rule="evenodd"/><path fill="#ffffff" d="m144.14061 181.9887c9.348877 0 16.06427 3.752777 20.14618 11.258347c4.081894 7.505554 6.1228485 18.895569 6.1228485 34.170044c0 7.1105347 -0.4937744 13.420029 -1.4813385 18.928513c-0.9875488 5.486511 -2.534729 10.106155 -4.64151 13.8589325c-2.1067963 3.7528076 -4.828064 6.605774 -8.163818 8.5589905c-3.313797 1.9312439 -7.3079224 2.896881 -11.982361 2.896881c-9.283035 0 -15.987442 -3.752777 -20.113243 -11.258331c-4.1038437 -7.5055695 -6.1557693 -18.895584 -6.1557693 -34.17006c0 -7.1105347 0.4937744 -13.409058 1.4813309 -18.895584c0.9875641 -5.5084686 2.5457077 -10.139099 4.6744385 -13.891876c2.1506805 -3.752777 4.871956 -6.5947876 8.163811 -8.526047c3.2918549 -1.9532013 7.275009 -2.9298096 11.949432 -2.9298096zm0.7900543 -21.924133c-7.3079224 0 -14.176941 1.3167572 -20.607025 3.9502869c-6.4081497 2.6335297 -12.004311 6.6825867 -16.788475 12.147156c-4.7622223 5.4645844 -8.514938 12.443436 -11.258148 20.93657c-2.7212677 8.493134 -4.081909 18.599304 -4.081909 30.318512c0 21.529114 4.279419 37.944794 12.838249 49.24701c8.558823 11.280304 21.33123 16.92044 38.317215 16.92044c7.3079224 0 14.165955 -1.3167725 20.574112 -3.9502869c6.430084 -2.633545 12.026245 -6.6825867 16.788467 -12.147156c4.7841644 -5.464569 8.5368805 -12.443451 11.258148 -20.936584c2.743225 -8.493118 4.1148224 -18.599289 4.1148224 -30.318497c0 -21.594955 -4.2794037 -38.021606 -12.838242 -49.279938c-8.558823 -11.258347 -21.331238 -16.887512 -38.317215 -16.887512z" fill-rule="evenodd"/><path fill="#ffffff" d="m131.34361 311.62302c-4.481102 0 -8.305206 0.5166321 -11.472298 1.5498962c-3.167099 1.0220337 -5.761421 2.403473 -7.7829742 4.144287c-2.021553 1.7296143 -3.5040207 3.756836 -4.4474106 6.0816956c-0.9433899 2.324829 -1.4150848 4.7844543 -1.4150848 7.378845c0 2.8302612 0.46046448 5.25058 1.3813934 7.260956c0.9321594 1.9991455 2.1563187 3.723114 3.6724854 5.171936c1.516159 1.448822 3.240097 2.6617737 5.1717987 3.6388855c1.9429321 0.9771118 3.913948 1.8531494 5.91304 2.6281128c2.010315 0.77493286 3.9813309 1.4993591 5.91304 2.1732178c1.9429321 0.67385864 3.6724854 1.4319763 5.1886444 2.2743225c1.516159 0.8423157 2.7347107 1.8138123 3.6556396 2.9144592c0.9321594 1.0894165 1.3982391 2.4427795 1.3982391 4.0600586c0 1.1792908 -0.2358551 2.2574768 -0.70755005 3.2345886c-0.47169495 0.9771118 -1.2297668 1.819458 -2.2742462 2.527008c-1.0444641 0.70755005 -2.3921661 1.2634888 -4.043091 1.6678162c-1.65094 0.4043274 -3.6556473 0.60647583 -6.014122 0.60647583c-1.5835495 0 -3.217636 -0.10107422 -4.90226 -0.30322266c-1.6846237 -0.20217896 -3.3804855 -0.47732544 -5.08757 -0.8255005c-1.6958618 -0.35940552 -3.3861008 -0.77493286 -5.0707245 -1.2466431c-1.6846237 -0.4717102 -3.3018646 -0.9771118 -4.8517227 -1.5162048l0 12.28125c3.167099 0.9434204 6.367882 1.617279 9.602364 2.0216064c3.2344818 0.4043274 6.586891 0.60647583 10.05722 0.60647583c3.9083252 0 7.5134277 -0.42114258 10.815292 -1.2634888c3.30188 -0.8423462 6.1488953 -2.128296 8.541061 -3.8579102c2.3921661 -1.7408142 4.2508698 -3.9421387 5.576111 -6.6039124c1.3364716 -2.6617737 2.0046997 -5.795288 2.0046997 -9.400482c0 -2.695465 -0.4660797 -5.02594 -1.3982391 -6.991394c-0.92092896 -1.9766846 -2.1506958 -3.6894226 -3.689331 -5.1382446c-1.5273895 -1.448822 -3.262558 -2.6786194 -5.20549 -3.6894226c-1.9317017 -1.0108032 -3.919571 -1.9093018 -5.9635773 -2.6954956c-2.0327759 -0.7973938 -4.020645 -1.5386658 -5.9635773 -2.223755c-1.9317017 -0.6963196 -3.6668625 -1.4375916 -5.20549 -2.2237854c-1.5273972 -0.7973938 -2.7571716 -1.6902771 -3.689331 -2.6786194c-0.92092896 -0.99957275 -1.3813934 -2.1900635 -1.3813934 -3.5715027c0 -1.1118774 0.21900177 -2.1226807 0.6570053 -3.0324097c0.43800354 -0.909729 1.145546 -1.6734314 2.1226273 -2.2911682c0.9770813 -0.62893677 2.223709 -1.1174927 3.7398682 -1.4656677c1.5161667 -0.359375 3.3692474 -0.539093 5.559265 -0.539093c1.2466278 0 2.5606384 0.06741333 3.9420319 0.20217896c1.3813934 0.13476562 2.7515564 0.33129883 4.1104736 0.5896301c1.370163 0.24707031 2.695404 0.539093 3.9757233 0.8760376c1.2803192 0.33691406 2.459549 0.70755005 3.5377197 1.1118774l0 -11.3715515c-1.0781708 -0.26953125 -2.268631 -0.52786255 -3.5714111 -0.77493286c-1.2915497 -0.2583313 -2.6392517 -0.47732544 -4.043106 -0.65704346c-1.3926239 -0.19091797 -2.8077087 -0.3425293 -4.2452545 -0.4548645c-1.4263153 -0.123535156 -2.7964783 -0.18530273 -4.110489 -0.18530273z" fill-rule="evenodd"/><path fill="#ffffff" d="m204.67609 311.83002c-4.683258 0 -8.906052 0.78616333 -12.668396 2.35849c-3.7510986 1.5611267 -6.9406586 3.8353882 -9.568665 6.8228455c-2.6280212 2.9762268 -4.6495667 6.6319275 -6.0646515 10.967072c-1.4150848 4.323944 -2.122635 9.2655945 -2.122635 14.824951c0 5.4245605 0.6457825 10.186523 1.9373169 14.285828c1.3027802 4.0881042 3.2064056 7.51355 5.7108917 10.276398c2.5157013 2.7628174 5.598572 4.846161 9.248596 6.250061c3.661255 1.3926392 7.8672028 2.0889587 12.617844 2.0889587c2.9649353 0 5.817566 -0.28640747 8.557892 -0.8591614c2.7515564 -0.5727844 5.592972 -1.448822 8.524216 -2.6280823l0 -11.624084c-1.1118622 0.5054016 -2.319168 1.005188 -3.6219482 1.4993286c-1.2915497 0.48294067 -2.6055603 0.90411377 -3.9420166 1.2634888c-1.3252411 0.34817505 -2.6392517 0.634552 -3.9420319 0.8591919c-1.2915497 0.2133789 -2.4932404 0.32006836 -3.6051025 0.32006836c-3.0997162 0 -5.7782593 -0.51101685 -8.03566 -1.53302c-2.2574005 -1.0332642 -4.110489 -2.5269775 -5.559265 -4.4811707c-1.4487762 -1.9541931 -2.5213318 -4.3351746 -3.217636 -7.1429443c-0.6850891 -2.8189697 -1.0276184 -6.0141907 -1.0276184 -9.585663c0 -3.3692932 0.33691406 -6.4578247 1.0107727 -9.265564c0.6738434 -2.8190002 1.723938 -5.2449036 3.1502533 -7.27771c1.4375458 -2.0440369 3.2681732 -3.6276245 5.491867 -4.750702c2.223709 -1.1343384 4.9022675 -1.7015076 8.035675 -1.7015076c2.1226196 0 4.4811096 0.28637695 7.075424 0.8591614c2.5943298 0.5727844 5.3234253 1.5330505 8.187286 2.8807678l0 -12.331665c-1.4150848 -0.4716797 -2.7796326 -0.8591614 -4.093643 -1.162384c-1.3140106 -0.30325317 -2.6111755 -0.54470825 -3.8914795 -0.72442627c-1.2803192 -0.19091797 -2.5887146 -0.32006836 -3.9251862 -0.38745117c-1.3252411 -0.06738281 -2.7459412 -0.10107422 -4.2621 -0.10107422z" fill-rule="evenodd"/><path fill="#ffffff" d="m334.2627 322.71268c2.395752 0 4.466339 0.2738037 6.2118225 0.82141113c1.7454529 0.5476074 3.1886292 1.3347778 4.3294373 2.3615417c1.1522522 1.0267639 2.0078735 2.2702637 2.566864 3.7305603c0.5704346 1.4488525 0.85562134 3.0631409 0.85562134 4.842865c0 1.9508362 -0.30230713 3.71344 -0.9069519 5.287781c-0.5932312 1.5743713 -1.4659729 2.9262695 -2.6181946 4.0556946c-1.1408386 1.129425 -2.5497742 1.9964905 -4.226776 2.6011353c-1.6770325 0.5932312 -3.6107178 0.88983154 -5.801117 0.88983154l-7.033203 0l0 -24.59082zm-19.354156 -10.4729l0 67.09854l12.731659 0l0 -21.56189l6.417145 0c4.5177 0 8.487793 -0.598938 11.910278 -1.796814c3.4224854 -1.1979065 6.280243 -2.874939 8.573334 -5.031128c2.2930603 -2.156189 4.0214233 -4.71167 5.1850586 -7.666443c1.1636353 -2.9661865 1.7454834 -6.194763 1.7454834 -9.68573c0 -3.4225159 -0.5932312 -6.4571533 -1.7796936 -9.103912c-1.1750793 -2.6581726 -2.9034119 -4.894226 -5.185089 -6.7081604c-2.2702332 -1.8139343 -5.0766907 -3.1886292 -8.419312 -4.124115c-3.3312378 -0.9468994 -7.170105 -1.4203491 -11.516693 -1.4203491z" fill-rule="evenodd"/><path fill="#ffffff" d="m379.23312 310.9651l0 69.64859l41.93747 0l0 -11.084076l-28.61554 0l0 -19.343872l27.283325 0l0 -10.817657l-27.283325 0l0 -17.318909l28.61554 0l0 -11.084076z" fill-rule="evenodd"/><path fill="#ffffff" d="m223.33327 160.03056l0 129.07591l22.121277 0l0 -40.095505l0 -53.526505l7.1104126 16.591248l34.5645 77.03076l29.626709 0l0 -129.07591l-22.121277 0l0 35.651413l0 56.983017l-6.2216187 -15.109879l-35.255783 -77.52455z" fill-rule="evenodd"/><path fill="#ffffff" d="m343.95422 289.03595l0 -128.94489l24.944885 0l0 128.94489z" fill-rule="evenodd"/><path fill="#ffffff" d="m343.95422 160.06807l89.7323 0l0 21.16536l-89.7323 0z" fill-rule="evenodd"/><path fill="#ffffff" d="m343.95422 272.38712l89.7323 0l0 21.165375l-89.7323 0z" fill-rule="evenodd"/><path fill="#ffffff" d="m343.95422 214.52782l89.7323 0l0 21.165344l-89.7323 0z" fill-rule="evenodd"/><path fill="#ffffff" d="m270.03073 321.74435c4.8763123 0 8.379028 1.957489 10.508118 5.872467c2.1290894 3.9149475 3.193634 9.856079 3.193634 17.823364c0 3.7089233 -0.25756836 7.0 -0.77264404 9.8732605c-0.5151062 2.8618164 -1.322113 5.271454 -2.42099 7.228943c-1.0989075 1.957489 -2.51828 3.4456177 -4.258209 4.4644165c-1.7284546 1.0073547 -3.8117676 1.5110474 -6.2499084 1.5110474c-4.84198 0 -8.338959 -1.957489 -10.490936 -5.8724365c-2.1405334 -3.914978 -3.2108154 -9.85611 -3.2108154 -17.823395c0 -3.7088928 0.25753784 -6.9942627 0.77264404 -9.856079c0.5151062 -2.8732605 1.3278198 -5.2886353 2.4381714 -7.2461243c1.1217651 -1.9574585 2.5411682 -3.4398804 4.2581787 -4.447235c1.7170105 -1.0187988 3.7945862 -1.5282288 6.2327576 -1.5282288zm0.41207886 -11.435791c-3.8117676 0 -7.3945923 0.6868286 -10.748474 2.0604858c-3.3424683 1.3736877 -6.261383 3.4857178 -8.756775 6.3360596c-2.4839325 2.8503723 -4.44133 6.4906006 -5.872177 10.920685c-1.4193878 4.430084 -2.1290894 9.701569 -2.1290894 15.814392c0 11.229767 2.2321167 19.792297 6.696335 25.687653c4.4642334 5.8838806 11.126251 8.825806 19.986023 8.825806c3.8117676 0 7.388855 -0.6868286 10.731323 -2.0604858c3.3538818 -1.3736877 6.2727966 -3.4856873 8.756744 -6.3360596c2.4953918 -2.8503723 4.4527893 -6.4906006 5.8721924 -10.920685c1.4308472 -4.430084 2.1462708 -9.701538 2.1462708 -15.814392c0 -11.264099 -2.2321167 -19.832367 -6.69635 -25.704803c-4.4642334 -5.8724365 -11.126251 -8.808655 -19.986023 -8.808655z" fill-rule="evenodd"/></g></svg>